Coordinates
version=1
nRows=4
nColumns=114
inDegrees=yes

Units are S.I. units (second, meters, Newtons, ...)
If the header above contains a line with 'inDegrees', this indicates whether rotational values are in degrees (yes) or radians (no).

endheader 
time	pelvis_tilt	pelvis_list	pelvis_rotation	pelvis_tx	pelvis_ty	pelvis_tz	hip_flexion_l	hip_adduction_l	hip_rotation_l	hip_flexion_r	hip_adduction_r	hip_rotation_r	knee_angle_l	knee_angle_r	ankle_angle_l	ankle_angle_r	subtalar_angle_l	subtalar_angle_r	mtp_angle_l	mtp_angle_r	lumbar_extension	lumbar_bending	lumbar_rotation	arm_flex_l	arm_add_l	arm_rot_l	arm_flex_r	arm_add_r	arm_rot_r	elbow_flex_l	elbow_flex_r	pro_sup_l	pro_sup_r	addbrev_l/activation	addlong_l/activation	addmagDist_l/activation	addmagIsch_l/activation	addmagMid_l/activation	addmagProx_l/activation	bflh_l/activation	bfsh_l/activation	edl_l/activation	ehl_l/activation	fdl_l/activation	fhl_l/activation	gaslat_l/activation	gasmed_l/activation	glmax1_l/activation	glmax2_l/activation	glmax3_l/activation	glmed1_l/activation	glmed2_l/activation	glmed3_l/activation	glmin1_l/activation	glmin2_l/activation	glmin3_l/activation	grac_l/activation	iliacus_l/activation	perbrev_l/activation	perlong_l/activation	piri_l/activation	psoas_l/activation	recfem_l/activation	sart_l/activation	semimem_l/activation	semiten_l/activation	soleus_l/activation	tfl_l/activation	tibant_l/activation	tibpost_l/activation	vasint_l/activation	vaslat_l/activation	vasmed_l/activation	addbrev_r/activation	addlong_r/activation	addmagDist_r/activation	addmagIsch_r/activation	addmagMid_r/activation	addmagProx_r/activation	bflh_r/activation	bfsh_r/activation	edl_r/activation	ehl_r/activation	fdl_r/activation	fhl_r/activation	gaslat_r/activation	gasmed_r/activation	glmax1_r/activation	glmax2_r/activation	glmax3_r/activation	glmed1_r/activation	glmed2_r/activation	glmed3_r/activation	glmin1_r/activation	glmin2_r/activation	glmin3_r/activation	grac_r/activation	iliacus_r/activation	perbrev_r/activation	perlong_r/activation	piri_r/activation	psoas_r/activation	recfem_r/activation	sart_r/activation	semimem_r/activation	semiten_r/activation	soleus_r/activation	tfl_r/activation	tibant_r/activation	tibpost_r/activation	vasint_r/activation	vaslat_r/activation	vasmed_r/activation	
          1.73000000	         -2.56421273	         -0.79511165	         -5.26906444	          1.74055597	          0.94953351	         -0.26074770	          8.18572379	         -0.34400373	        -13.39725383	         -1.56694936	         -0.64205052	         -7.82193454	          3.65830555	         15.62406030	         -5.16348893	          4.54993611	          5.67887224	          3.79592340	        -13.61846652	        -16.11724447	         -1.91603764	         -1.44302071	          2.80392403	          1.23340745	         -6.88115920	         17.77289497	          1.16985056	         -9.11132391	         26.19875326	         19.92677231	         24.46211712	         71.92177813	         70.44325765	          0.21135954	          0.24508506	          0.15458661	          0.15087922	          0.17716942	          0.22399266	          0.19078790	          0.32077382	          0.26596246	          0.28543144	          0.25670187	          0.26056724	          0.23800061	          0.17227533	          0.18394784	          0.13473517	          0.10435868	          0.24350319	          0.24098574	          0.25106567	          0.25317952	          0.23132315	          0.26707919	          0.24503939	          0.33837924	          0.12920834	          0.06830407	          0.29686445	          0.34445608	          0.09495266	          0.31868005	          0.21929096	          0.22705419	          0.05601987	          0.28388533	          0.53943738	          0.34782482	          0.09963185	          0.05620640	          0.08762072	          0.35488677	          0.53725888	          0.16180056	          0.15341057	          0.22019233	          0.22671023	          0.09316490	          0.28081654	          0.23344039	          0.24125711	          0.23161545	          0.23800451	          0.29310127	          0.32209441	          0.07856017	          0.05120081	          0.05727359	          0.30839746	          0.11073267	          0.08301049	          0.33814205	          0.22378476	          0.15558221	          0.25444243	          0.43636982	          0.20424713	          0.19133057	          0.09310384	          0.38988561	          0.23949871	          0.29303116	          0.11101260	          0.16610551	          0.16692415	          0.29904269	          0.32546796	          0.25693121	          0.09128908	          0.03667735	          0.07093171	
          1.74000000	         -2.39515719	         -1.00359878	         -5.30204732	          1.74216583	          0.95034360	         -0.26282348	          7.79983805	         -0.38502180	        -13.40181469	         -0.86198452	         -0.70452357	         -7.85470902	          3.52557802	         17.41293358	         -4.88038908	          3.65510702	          5.78777610	          3.06792650	        -13.44563900	        -17.20277807	         -2.20976933	         -1.12445728	          2.55418562	          1.51898307	         -6.83599355	         18.05532308	          1.17019068	         -9.25811568	         25.78315590	         19.83304949	         24.36435190	         72.03083588	         70.21864167	          0.21382196	          0.24917499	          0.15631099	          0.15307335	          0.17904953	          0.22437033	          0.18937193	          0.32007461	          0.26670837	          0.28575213	          0.25757097	          0.26120951	          0.23318620	          0.16525162	          0.18247965	          0.13350226	          0.10442947	          0.24502228	          0.23922872	          0.24736064	          0.25432576	          0.23265885	          0.26594512	          0.24654293	          0.33745354	          0.12805127	          0.06624908	          0.29313351	          0.34259709	          0.09283286	          0.31719394	          0.21716515	          0.23030598	          0.05397638	          0.28411185	          0.53948373	          0.35272142	          0.09937865	          0.05624491	          0.08736817	          0.37033367	          0.54574169	          0.16668236	          0.15187051	          0.23215926	          0.24550047	          0.09813336	          0.27883224	          0.24148378	          0.24201868	          0.22795248	          0.23055707	          0.28292810	          0.30827697	          0.08143842	          0.05293175	          0.06222110	          0.26990655	          0.11157319	          0.08599835	          0.31824920	          0.22152324	          0.16224552	          0.26437560	          0.43011950	          0.21485942	          0.20651780	          0.09933174	          0.40027929	          0.24279441	          0.29504291	          0.11208162	          0.16805653	          0.16015782	          0.28873551	          0.31518159	          0.24235484	          0.09219997	          0.03766918	          0.07248852	
          1.75000000	         -2.23194554	         -1.21987878	         -5.33209533	          1.74359614	          0.95111897	         -0.26485803	          7.42549399	         -0.43903480	        -13.41882325	         -0.10506404	         -0.74610159	         -7.86986546	          3.38482748	         19.25730101	         -4.59086858	          2.77889291	          5.92554088	          2.23927200	        -13.23675204	        -18.12575022	         -2.51709366	         -0.80757825	          2.29469355	          1.80950160	         -6.80636505	         18.33036602	          1.19326048	         -9.40473089	         25.37003675	         19.77073428	         24.27988338	         72.13156364	         69.99473027	          0.21592088	          0.25519916	          0.15684441	          0.15233476	          0.18014163	          0.22507673	          0.18363487	          0.32229607	          0.26651832	          0.28575693	          0.25895792	          0.26295941	          0.22914130	          0.15949924	          0.18008532	          0.13100886	          0.10336742	          0.24498673	          0.23785734	          0.24469000	          0.25505320	          0.23367631	          0.26418389	          0.24756925	          0.33878995	          0.12678597	          0.06489839	          0.28897400	          0.34354271	          0.09510800	          0.31694013	          0.21010408	          0.22919444	          0.05237877	          0.28535859	          0.53844563	          0.36009423	          0.09980083	          0.05692209	          0.08777487	          0.38212557	          0.54804633	          0.17417170	          0.15419626	          0.24471805	          0.26206453	          0.10482702	          0.27674308	          0.24890988	          0.24301610	          0.22477583	          0.22377280	          0.27214076	          0.29175473	          0.08544566	          0.05615038	          0.06922762	          0.23694485	          0.11281751	          0.08948539	          0.29899214	          0.21817043	          0.16538103	          0.27391540	          0.41925892	          0.22308005	          0.21741540	          0.10635625	          0.40280530	          0.24153578	          0.29492137	          0.11601241	          0.16884478	          0.15135621	          0.27817325	          0.30858593	          0.22924718	          0.09349904	          0.03885684	          0.07420198	
          1.76000000	         -2.08045600	         -1.43719970	         -5.36010163	          1.74486282	          0.95182013	         -0.26682488	          7.07046736	         -0.50026480	        -13.44458928	          0.68790672	         -0.76228869	         -7.85892163	          3.23658280	         21.11632574	         -4.30349916	          1.94295975	          6.07794119	          1.29374167	        -13.00474410	        -18.84009886	         -2.82841574	         -0.50464435	          2.02883768	          2.10464029	         -6.79551959	         18.59835743	          1.23570020	         -9.54589880	         24.95957549	         19.73777028	         24.20714528	         72.22413714	         69.77071828	          0.21860676	          0.26180155	          0.15610822	          0.15151727	          0.18048831	          0.22629501	          0.17556346	          0.31994290	          0.26447587	          0.28531076	          0.26137479	          0.26690739	          0.22679086	          0.15491460	          0.17574742	          0.12679725	          0.10102863	          0.24260950	          0.23488665	          0.24085510	          0.25499723	          0.23359341	          0.26364913	          0.24722627	          0.34203674	          0.12516286	          0.06142948	          0.28494542	          0.34744489	          0.10383350	          0.31733044	          0.20058467	          0.22377992	          0.05126839	          0.28696502	          0.53652428	          0.37186525	          0.10005840	          0.05757909	          0.08790185	          0.38848336	          0.54176110	          0.18314644	          0.15815146	          0.25612164	          0.27550482	          0.11371092	          0.27469234	          0.25598581	          0.24481777	          0.22220417	          0.21781607	          0.26095066	          0.27249787	          0.09016175	          0.06053474	          0.07801822	          0.20900282	          0.11442384	          0.09329906	          0.28156862	          0.21492274	          0.17040478	          0.28073833	          0.40685207	          0.22908240	          0.22477553	          0.11308068	          0.40139449	          0.23459284	          0.29317197	          0.12389360	          0.17701058	          0.14126361	          0.26803064	          0.30609289	          0.21805418	          0.09618294	          0.04069162	          0.07701420	
